<?xml version="1.0" encoding="iso-8859-1"?>
<!-- Uploaded to: SVG Repo, www.svgrepo.com, Generator: SVG Repo Mixer Tools -->
<svg height="800px" width="800px" version="1.1" id="Layer_1" xmlns="http://www.w3.org/2000/svg" xmlns:xlink="http://www.w3.org/1999/xlink" 
	 viewBox="0 0 512 512" xml:space="preserve">
<path style="fill:#998373;" d="M0,512h176.552V0H0V512z"/>
<g>
	<path style="fill:#514439;" d="M132.414,114.759c-5.297,0-8.828-3.531-8.828-8.828V8.828c0-5.297,3.531-8.828,8.828-8.828
		c5.297,0,8.828,3.531,8.828,8.828v97.103C141.241,111.228,137.71,114.759,132.414,114.759"/>
	<path style="fill:#514439;" d="M132.414,379.586c-5.297,0-8.828-3.531-8.828-8.828v-70.621c0-5.297,3.531-8.828,8.828-8.828
		c5.297,0,8.828,3.531,8.828,8.828v70.621C141.241,376.055,137.71,379.586,132.414,379.586"/>
	<path style="fill:#514439;" d="M132.414,512c-5.297,0-8.828-3.531-8.828-8.828v-97.103c0-5.297,3.531-8.828,8.828-8.828
		c5.297,0,8.828,3.531,8.828,8.828v97.103C141.241,508.469,137.71,512,132.414,512"/>
	<path style="fill:#514439;" d="M88.276,52.966c-5.297,0-8.828-3.531-8.828-8.828V8.828C79.448,3.531,82.979,0,88.276,0
		s8.828,3.531,8.828,8.828v35.31C97.103,49.434,93.572,52.966,88.276,52.966"/>
	<path style="fill:#514439;" d="M44.138,114.759c-5.297,0-8.828-3.531-8.828-8.828V8.828C35.31,3.531,38.841,0,44.138,0
		s8.828,3.531,8.828,8.828v97.103C52.966,111.228,49.434,114.759,44.138,114.759"/>
	<path style="fill:#514439;" d="M88.276,423.724c-5.297,0-8.828-3.531-8.828-8.828v-61.793c0-5.297,3.531-8.828,8.828-8.828
		s8.828,3.531,8.828,8.828v61.793C97.103,420.193,93.572,423.724,88.276,423.724"/>
	<path style="fill:#514439;" d="M88.276,512c-5.297,0-8.828-3.531-8.828-8.828v-44.138c0-5.297,3.531-8.828,8.828-8.828
		s8.828,3.531,8.828,8.828v44.138C97.103,508.469,93.572,512,88.276,512"/>
	<path style="fill:#514439;" d="M88.276,194.207c9.71,0,17.655-7.945,17.655-17.655c0-9.71-7.945-17.655-17.655-17.655
		s-17.655,7.945-17.655,17.655C70.621,186.262,78.566,194.207,88.276,194.207"/>
	<path style="fill:#514439;" d="M132.414,264.828c-5.297,0-8.828-3.531-8.828-8.828v-79.448c0-19.421-15.89-35.31-35.31-35.31
		c-5.297,0-8.828-3.531-8.828-8.828v-35.31c0-5.297,3.531-8.828,8.828-8.828s8.828,3.531,8.828,8.828v27.366
		c24.717,4.414,44.138,25.6,44.138,52.083V256C141.241,261.297,137.71,264.828,132.414,264.828"/>
	<path style="fill:#514439;" d="M88.276,317.793c-5.297,0-8.828-3.531-8.828-8.828v-80.331c-24.717-4.414-44.138-25.6-44.138-52.083
		v-26.483c0-5.297,3.531-8.828,8.828-8.828s8.828,3.531,8.828,8.828v26.483c0,19.421,15.89,35.31,35.31,35.31
		c5.297,0,8.828,3.531,8.828,8.828v88.276C97.103,314.262,93.572,317.793,88.276,317.793"/>
	<path style="fill:#514439;" d="M44.138,344.276c-5.297,0-8.828-3.531-8.828-8.828v-88.276c0-5.297,3.531-8.828,8.828-8.828
		s8.828,3.531,8.828,8.828v88.276C52.966,340.745,49.434,344.276,44.138,344.276"/>
	<path style="fill:#514439;" d="M44.138,512c-5.297,0-8.828-3.531-8.828-8.828v-61.793c0-5.297,3.531-8.828,8.828-8.828
		s8.828,3.531,8.828,8.828v61.793C52.966,508.469,49.434,512,44.138,512"/>
	<path style="fill:#514439;" d="M44.138,406.069c-5.297,0-8.828-3.531-8.828-8.828v-17.655c0-5.297,3.531-8.828,8.828-8.828
		s8.828,3.531,8.828,8.828v17.655C52.966,402.538,49.434,406.069,44.138,406.069"/>
</g>
<path style="fill:#7F7C79;" d="M308.966,247.172h70.621V141.241h-70.621V247.172z"/>
<g>
	<path style="fill:#565656;" d="M308.966,141.241h61.793c11.476,0,22.952-3.531,31.779-10.593
		c13.241-9.71,13.241-15.89,29.131-15.89c5.297,0,9.71,4.414,9.71,8.828c0,4.414,4.414,8.828,8.828,8.828h44.138
		c9.71,0,17.655-7.945,17.655-17.655V52.966c0-9.71-7.945-17.655-17.655-17.655h-44.138c-4.414,0-8.828,3.531-8.828,8.828
		s-4.414,8.828-8.828,8.828c-16.772,0-16.772-5.297-30.014-15.89c-8.828-7.062-20.303-10.593-31.779-10.593h-52.966
		c-43.255,0-84.745,27.366-109.462,62.676l-5.297,7.945C203.035,97.103,308.966,58.262,308.966,141.241"/>
	<path style="fill:#565656;" d="M308.966,247.172v238.345c0,15.007,11.476,26.483,26.483,26.483h17.655
		c15.007,0,26.483-11.476,26.483-26.483V247.172H308.966z"/>
</g>
<g>
	<path style="fill:#7F7C79;" d="M335.448,423.724h-26.483l0,0v17.655l0,0h26.483c5.297,0,8.828-3.531,8.828-8.828
		S339.862,423.724,335.448,423.724"/>
	<path style="fill:#7F7C79;" d="M335.448,459.034h-26.483l0,0v17.655l0,0h26.483c5.297,0,8.828-3.531,8.828-8.828
		S339.862,459.034,335.448,459.034"/>
</g>
</svg>