<?xml version="1.0" encoding="iso-8859-1"?>
<!-- Uploaded to: SVG Repo, www.svgrepo.com, Generator: SVG Repo Mixer Tools -->
<svg height="800px" width="800px" version="1.1" id="Layer_1" xmlns="http://www.w3.org/2000/svg" xmlns:xlink="http://www.w3.org/1999/xlink" 
	 viewBox="0 0 512 512" xml:space="preserve">
<path style="fill:#F0CE49;" d="M422.841,152.717C414.014,73.269,350.455,9.71,271.007,0.883C265.71,0.883,261.297,0,256,0
	c-5.297,0-9.71,0-15.007,0.883C161.545,9.71,97.986,74.152,89.159,152.717c-6.179,56.497,15.007,107.697,52.083,143.007
	c21.186,20.303,38.841,46.786,44.138,75.034h141.241c5.297-28.248,22.952-54.731,44.138-75.034
	C407.835,260.414,429.021,209.214,422.841,152.717"/>
<path style="fill:#61B972;" d="M361.931,167.724c0,58.262-47.669,105.931-105.931,105.931s-105.931-47.669-105.931-105.931
	S197.738,61.793,256,61.793S361.931,109.462,361.931,167.724"/>
<g>
	<path style="fill:#FFFFFF;" d="M256,238.345c-24.717,0-44.138-19.421-44.138-44.138c0-5.297,3.531-8.828,8.828-8.828
		s8.828,3.531,8.828,8.828c0,15.007,11.476,26.483,26.483,26.483c7.945,0,15.007-3.531,20.303-9.71
		c2.648-2.648,3.531-6.179,2.648-9.71c0-3.531-2.648-7.062-5.297-9.71l-45.903-36.193c-7.062-5.297-11.476-13.241-12.359-22.069
		c-0.883-8.828,1.766-16.772,7.062-22.952c8.828-9.71,20.303-15.89,33.545-15.89c24.717,0,44.138,19.421,44.138,44.138
		c0,5.297-3.531,8.828-8.828,8.828c-5.297,0-8.828-3.531-8.828-8.828c0-15.007-11.476-26.483-26.483-26.483
		c-7.945,0-15.007,3.531-20.303,9.71c-2.648,2.648-3.531,6.179-2.648,9.71c0,3.531,2.648,7.062,5.297,9.71l45.903,36.193
		c7.062,5.297,11.476,13.241,12.359,22.069s-1.766,16.772-7.062,22.952C281.6,233.048,269.241,238.345,256,238.345"/>
	<path style="fill:#FFFFFF;" d="M256,112.11c-5.297,0-8.828-3.531-8.828-8.828V88.276c0-5.297,3.531-8.828,8.828-8.828
		c5.297,0,8.828,3.531,8.828,8.828v15.89C264.828,107.697,261.297,112.11,256,112.11"/>
	<path style="fill:#FFFFFF;" d="M256,254.234c-5.297,0-8.828-3.531-8.828-8.828v-15.89c0-5.297,3.531-8.828,8.828-8.828
		c5.297,0,8.828,3.531,8.828,8.828v15.89C264.828,249.821,261.297,254.234,256,254.234"/>
</g>
<path style="fill:#E8EDEE;" d="M185.379,370.759V476.69h141.241v-70.621v-35.31H185.379z"/>
<g>
	<path style="fill:#CBD4D8;" d="M269.241,512h-26.483c-7.945,0-15.89-3.531-21.186-10.593l-18.538-24.717h105.931l-18.538,24.717
		C285.131,508.469,277.186,512,269.241,512"/>
	<path style="fill:#CBD4D8;" d="M247.172,414.897c5.297,0,8.828-3.531,8.828-8.828s-3.531-8.828-8.828-8.828h-61.793v17.655H247.172
		z"/>
	<path style="fill:#CBD4D8;" d="M220.69,450.207c5.297,0,8.828-3.531,8.828-8.828s-3.531-8.828-8.828-8.828h-35.31v17.655H220.69z"
		/>
	<path style="fill:#CBD4D8;" d="M326.621,397.241h-35.31c-5.297,0-8.828,3.531-8.828,8.828s3.531,8.828,8.828,8.828h35.31v-8.828
		V397.241z"/>
	<path style="fill:#CBD4D8;" d="M264.828,432.552c-5.297,0-8.828,3.531-8.828,8.828s3.531,8.828,8.828,8.828h61.793v-17.655H264.828
		z"/>
</g>
</svg>