<?xml version="1.0" encoding="iso-8859-1"?>
<!-- Uploaded to: SVG Repo, www.svgrepo.com, Generator: SVG Repo Mixer Tools -->
<svg height="800px" width="800px" version="1.1" id="Layer_1" xmlns="http://www.w3.org/2000/svg" xmlns:xlink="http://www.w3.org/1999/xlink" 
	 viewBox="0 0 512 512" xml:space="preserve">
<path style="fill:#F4BA48;" d="M494.345,512H17.655C7.945,512,0,504.055,0,494.345V388.414c0-9.71,7.945-17.655,17.655-17.655
	h476.69c9.71,0,17.655,7.945,17.655,17.655v105.931C512,504.055,504.055,512,494.345,512"/>
<g>
	<path style="fill:#BD9139;" d="M150.069,476.69h70.621v-70.621h-70.621V476.69z"/>
	<path style="fill:#BD9139;" d="M264.828,476.69h70.621v-70.621h-70.621V476.69z"/>
	<path style="fill:#BD9139;" d="M379.586,476.69h70.621v-70.621h-70.621V476.69z"/>
	<path style="fill:#BD9139;" d="M335.448,370.759l136.828-76.8c11.476-7.062,15.89-21.186,9.71-33.545L436.083,179.2
		c-6.179-10.593-20.303-15.007-30.897-8.828L49.434,370.759H335.448z"/>
</g>
<path style="fill:#F4BA48;" d="M350.455,87.393l-74.152-47.669c-13.241-7.945-30.014-4.414-37.959,7.945L30.897,370.759h18.538
	L282.483,240.11l75.917-118.29C365.462,110.345,361.931,95.338,350.455,87.393"/>
<g>
	<path style="fill:#BD9139;" d="M105.931,441.379c0,19.421-15.89,35.31-35.31,35.31s-35.31-15.89-35.31-35.31
		c0-19.421,15.89-35.31,35.31-35.31S105.931,421.959,105.931,441.379"/>
	<path style="fill:#BD9139;" d="M158.897,172.138V17.655C158.897,6.179,152.717,0,141.241,0H35.31
		C23.834,0,17.655,6.179,17.655,17.655v353.103h13.241L158.897,172.138z"/>
</g>
</svg>