<?xml version="1.0" encoding="iso-8859-1"?>
<!-- Uploaded to: SVG Repo, www.svgrepo.com, Generator: SVG Repo Mixer Tools -->
<svg height="800px" width="800px" version="1.1" id="Layer_1" xmlns="http://www.w3.org/2000/svg" xmlns:xlink="http://www.w3.org/1999/xlink" 
	 viewBox="0 0 512.051 512.051" xml:space="preserve">
<path style="fill:#A3AAAF;" d="M397.241,128.194H167.724c-5.297,0-8.828-3.531-8.828-8.828c0-5.297,3.531-8.828,8.828-8.828h229.517
	c5.297,0,8.828,3.531,8.828,8.828C406.069,124.663,402.538,128.194,397.241,128.194"/>
<path style="fill:#9E5A23;" d="M229.517,445.987H512V269.435H229.517V445.987z"/>
<g>
	<path style="fill:#7F4316;" d="M486.4,206.759C486.4,205.877,486.4,205.877,486.4,206.759c-22.952-15.007-35.31-40.607-35.31-67.09
		v-18.538c0-26.483-19.421-51.2-45.903-54.731c-31.779-3.531-60.028,21.186-60.028,52.966v20.303
		c0,26.483-12.359,52.083-35.31,66.207c0,0-0.883,0-0.883,0.883c-15.89,9.71-26.483,26.483-26.483,45.021v17.655H512V251.78
		C512.883,233.242,502.29,216.47,486.4,206.759"/>
	<path style="fill:#7F4316;" d="M300.138,313.573h-70.621c-5.297,0-8.828-3.531-8.828-8.828c0-5.297,3.531-8.828,8.828-8.828h70.621
		c5.297,0,8.828,3.531,8.828,8.828C308.966,310.042,305.434,313.573,300.138,313.573"/>
	<path style="fill:#7F4316;" d="M406.069,348.883h-26.483c-5.297,0-8.828-3.531-8.828-8.828c0-5.297,3.531-8.828,8.828-8.828h26.483
		c5.297,0,8.828,3.531,8.828,8.828C414.897,345.352,411.366,348.883,406.069,348.883"/>
	<path style="fill:#7F4316;" d="M503.172,348.883h-61.793c-5.297,0-8.828-3.531-8.828-8.828c0-5.297,3.531-8.828,8.828-8.828h61.793
		c5.297,0,8.828,3.531,8.828,8.828C512,345.352,508.469,348.883,503.172,348.883"/>
	<path style="fill:#7F4316;" d="M503.172,313.573h-52.966c-5.297,0-8.828-3.531-8.828-8.828c0-5.297,3.531-8.828,8.828-8.828h52.966
		c5.297,0,8.828,3.531,8.828,8.828C512,310.042,508.469,313.573,503.172,313.573"/>
	<path style="fill:#7F4316;" d="M414.897,313.573h-79.448c-5.297,0-8.828-3.531-8.828-8.828c0-5.297,3.531-8.828,8.828-8.828h79.448
		c5.297,0,8.828,3.531,8.828,8.828C423.724,310.042,420.193,313.573,414.897,313.573"/>
	<path style="fill:#7F4316;" d="M300.138,419.504h-70.621c-5.297,0-8.828-3.531-8.828-8.828s3.531-8.828,8.828-8.828h70.621
		c5.297,0,8.828,3.531,8.828,8.828S305.434,419.504,300.138,419.504"/>
	<path style="fill:#7F4316;" d="M503.172,419.504h-52.966c-5.297,0-8.828-3.531-8.828-8.828s3.531-8.828,8.828-8.828h52.966
		c5.297,0,8.828,3.531,8.828,8.828S508.469,419.504,503.172,419.504"/>
	<path style="fill:#7F4316;" d="M414.897,419.504h-79.448c-5.297,0-8.828-3.531-8.828-8.828s3.531-8.828,8.828-8.828h79.448
		c5.297,0,8.828,3.531,8.828,8.828S420.193,419.504,414.897,419.504"/>
	<path style="fill:#7F4316;" d="M344.276,348.883H229.517c-5.297,0-8.828-3.531-8.828-8.828c0-5.297,3.531-8.828,8.828-8.828
		h114.759c5.297,0,8.828,3.531,8.828,8.828C353.103,345.352,349.572,348.883,344.276,348.883"/>
	<path style="fill:#7F4316;" d="M353.103,384.194h-26.483c-5.297,0-8.828-3.531-8.828-8.828s3.531-8.828,8.828-8.828h26.483
		c5.297,0,8.828,3.531,8.828,8.828S358.4,384.194,353.103,384.194"/>
	<path style="fill:#7F4316;" d="M291.31,384.194h-61.793c-5.297,0-8.828-3.531-8.828-8.828s3.531-8.828,8.828-8.828h61.793
		c5.297,0,8.828,3.531,8.828,8.828S296.607,384.194,291.31,384.194"/>
	<path style="fill:#7F4316;" d="M503.172,384.194H388.414c-5.297,0-8.828-3.531-8.828-8.828s3.531-8.828,8.828-8.828h114.759
		c5.297,0,8.828,3.531,8.828,8.828S508.469,384.194,503.172,384.194"/>
</g>
<path style="fill:#C17C3E;" d="M168.607,139.67v-18.538c0-26.483-19.421-51.2-45.903-54.731
	c-31.779-3.531-60.028,21.186-60.028,52.966v20.303c0,26.483-12.359,52.083-35.31,66.207c0,0-0.883,0-0.883,0.883
	C10.593,216.47,0,233.242,0,251.78v194.207h229.517V251.78c0-18.538-10.593-35.31-26.483-45.021c0,0-0.883,0-0.883-0.883
	C180.966,191.752,168.607,166.152,168.607,139.67"/>
</svg>