<?xml version="1.0" encoding="iso-8859-1"?>
<!-- Uploaded to: SVG Repo, www.svgrepo.com, Generator: SVG Repo Mixer Tools -->
<svg height="800px" width="800px" version="1.1" id="Layer_1" xmlns="http://www.w3.org/2000/svg" xmlns:xlink="http://www.w3.org/1999/xlink" 
	 viewBox="0 0 512 512" xml:space="preserve">
<path style="fill:#847059;" d="M35.31,494.345H17.655c-5.297,0-8.828-3.531-8.828-8.828s3.531-8.828,8.828-8.828H35.31
	c5.297,0,8.828,3.531,8.828,8.828S40.607,494.345,35.31,494.345"/>
<path style="fill:#6B4841;" d="M52.966,476.69h406.069V35.31H52.966V476.69z"/>
<path style="fill:#51302B;" d="M88.276,476.69h335.448V70.621H88.276V476.69z"/>
<g>
	<path style="fill:#847059;" d="M476.69,476.69H35.31v17.655c0,9.71,7.945,17.655,17.655,17.655h406.069
		c9.71,0,17.655-7.945,17.655-17.655V476.69z"/>
	<path style="fill:#847059;" d="M459.034,0H52.966C43.255,0,35.31,7.945,35.31,17.655S43.255,35.31,52.966,35.31h406.069
		c9.71,0,17.655-7.945,17.655-17.655S468.745,0,459.034,0"/>
	<path style="fill:#847059;" d="M494.345,494.345H476.69c-5.297,0-8.828-3.531-8.828-8.828s3.531-8.828,8.828-8.828h17.655
		c5.297,0,8.828,3.531,8.828,8.828S499.641,494.345,494.345,494.345"/>
</g>
<g>
	<path style="fill:#351B19;" d="M238.345,476.69h35.31V70.621h-35.31V476.69z"/>
	<path style="fill:#351B19;" d="M114.759,132.414c-2.648,0-4.414-0.883-6.179-2.648c-3.531-3.531-3.531-8.828,0-12.359
		l26.483-26.483c3.531-3.531,8.828-3.531,12.359,0c3.531,3.531,3.531,8.828,0,12.359l-26.483,26.483
		C119.172,131.531,117.407,132.414,114.759,132.414"/>
	<path style="fill:#351B19;" d="M114.759,176.552c-2.648,0-4.414-0.883-6.179-2.648c-3.531-3.531-3.531-8.828,0-12.359
		l17.655-17.655c3.531-3.531,8.828-3.531,12.359,0c3.531,3.531,3.531,8.828,0,12.359l-17.655,17.655
		C119.172,175.669,117.407,176.552,114.759,176.552"/>
	<path style="fill:#351B19;" d="M158.897,132.414c-2.648,0-4.414-0.883-6.179-2.648c-3.531-3.531-3.531-8.828,0-12.359L179.2,90.924
		c3.531-3.531,8.828-3.531,12.359,0c3.531,3.531,3.531,8.828,0,12.359l-26.483,26.483
		C163.31,131.531,161.545,132.414,158.897,132.414"/>
	<path style="fill:#351B19;" d="M370.759,459.034c-2.648,0-4.414-0.883-6.179-2.648c-3.531-3.531-3.531-8.828,0-12.359
		l26.483-26.483c3.531-3.531,8.828-3.531,12.359,0c3.531,3.531,3.531,8.828,0,12.359l-26.483,26.483
		C375.172,458.152,373.407,459.034,370.759,459.034"/>
	<path style="fill:#351B19;" d="M379.586,406.069c-2.648,0-4.414-0.883-6.179-2.648c-3.531-3.531-3.531-8.828,0-12.359
		l17.655-17.655c3.531-3.531,8.828-3.531,12.359,0c3.531,3.531,3.531,8.828,0,12.359l-17.655,17.655
		C384,405.186,382.234,406.069,379.586,406.069"/>
	<path style="fill:#351B19;" d="M326.621,459.034c-2.648,0-4.414-0.883-6.179-2.648c-3.531-3.531-3.531-8.828,0-12.359
		l26.483-26.483c3.531-3.531,8.828-3.531,12.359,0c3.531,3.531,3.531,8.828,0,12.359L332.8,456.386
		C331.034,458.152,329.269,459.034,326.621,459.034"/>
	<path style="fill:#351B19;" d="M185.379,308.966L185.379,308.966c-9.71,0-17.655-7.945-17.655-17.655V256
		c0-9.71,7.945-17.655,17.655-17.655c9.71,0,17.655,7.945,17.655,17.655v35.31C203.034,301.021,195.09,308.966,185.379,308.966"/>
	<path style="fill:#351B19;" d="M326.621,308.966L326.621,308.966c-9.71,0-17.655-7.945-17.655-17.655V256
		c0-9.71,7.945-17.655,17.655-17.655s17.655,7.945,17.655,17.655v35.31C344.276,301.021,336.331,308.966,326.621,308.966"/>
</g>
</svg>