<?xml version="1.0" encoding="iso-8859-1"?>
<!-- Uploaded to: SVG Repo, www.svgrepo.com, Generator: SVG Repo Mixer Tools -->
<svg height="800px" width="800px" version="1.1" id="Layer_1" xmlns="http://www.w3.org/2000/svg" xmlns:xlink="http://www.w3.org/1999/xlink" 
	 viewBox="0 0 512 512" xml:space="preserve">
<path style="fill:#7A6857;" d="M512,450.207H0V176.552L256,61.793l256,114.759V450.207z"/>
<path style="fill:#5B4839;" d="M52.966,450.207h406.069V220.69H52.966V450.207z"/>
<path style="fill:#BFA380;" d="M52.966,282.483h406.069V220.69H52.966V282.483z"/>
<path style="fill:#9E5A23;" d="M158.897,414.897c0-19.421-15.89-35.31-35.31-35.31s-35.31,15.89-35.31,35.31
	c0,19.421,15.89,35.31,35.31,35.31S158.897,434.317,158.897,414.897"/>
<g>
	<path style="fill:#CE8D5B;" d="M158.897,344.276c0-19.421-15.89-35.31-35.31-35.31s-35.31,15.89-35.31,35.31
		c0,19.421,15.89,35.31,35.31,35.31S158.897,363.697,158.897,344.276"/>
	<path style="fill:#CE8D5B;" d="M291.31,344.276c0-19.421-15.89-35.31-35.31-35.31s-35.31,15.89-35.31,35.31
		c0,19.421,15.89,35.31,35.31,35.31S291.31,363.697,291.31,344.276"/>
</g>
<g>
	<path style="fill:#9E5A23;" d="M388.414,308.966H256c19.421,0,35.31,15.89,35.31,35.31c0,19.421-15.89,35.31-35.31,35.31h132.414
		c19.421,0,35.31-15.89,35.31-35.31C423.724,324.855,407.835,308.966,388.414,308.966"/>
	<path style="fill:#9E5A23;" d="M291.31,414.897c0-19.421-15.89-35.31-35.31-35.31s-35.31,15.89-35.31,35.31
		c0,19.421,15.89,35.31,35.31,35.31S291.31,434.317,291.31,414.897"/>
</g>
<path style="fill:#844414;" d="M388.414,379.586H256c19.421,0,35.31,15.89,35.31,35.31c0,19.421-15.89,35.31-35.31,35.31h132.414
	c19.421,0,35.31-15.89,35.31-35.31C423.724,395.476,407.835,379.586,388.414,379.586"/>
<path style="fill:#9E5A23;" d="M220.69,344.276c0-19.421,15.89-35.31,35.31-35.31H123.586c19.421,0,35.31,15.89,35.31,35.31
	c0,19.421-15.89,35.31-35.31,35.31H256C236.579,379.586,220.69,363.697,220.69,344.276"/>
<path style="fill:#844414;" d="M220.69,414.897c0-19.421,15.89-35.31,35.31-35.31H123.586c19.421,0,35.31,15.89,35.31,35.31
	c0,19.421-15.89,35.31-35.31,35.31H256C236.579,450.207,220.69,434.317,220.69,414.897"/>
<g>
	<path style="fill:#5B4839;" d="M256,185.379h-26.483c-9.71,0-17.655-7.945-17.655-17.655v-26.483
		c0-9.71,7.945-17.655,17.655-17.655H256V185.379z"/>
	<path style="fill:#5B4839;" d="M282.483,185.379H256v-61.793h26.483c9.71,0,17.655,7.945,17.655,17.655v26.483
		C300.138,177.434,292.193,185.379,282.483,185.379"/>
</g>
</svg>